<svg xmlns="http://www.w3.org/2000/svg" viewBox="0 0 64 64" width="64" height="64">
  <!-- Left page -->
  <path d="M32 14 L32 52 C24 48, 14 48, 8 50 L8 12 C14 10, 24 10, 32 14 Z" fill="none" stroke="#263238" stroke-width="2.5" stroke-linejoin="round"/>
  <!-- Right page -->
  <path d="M32 14 L32 52 C40 48, 50 48, 56 50 L56 12 C50 10, 40 10, 32 14 Z" fill="none" stroke="#263238" stroke-width="2.5" stroke-linejoin="round"/>
  <!-- Left page lines -->
  <line x1="14" y1="22" x2="28" y2="20" stroke="#263238" stroke-width="1.5" stroke-linecap="round"/>
  <line x1="14" y1="30" x2="28" y2="28" stroke="#263238" stroke-width="1.5" stroke-linecap="round"/>
  <line x1="14" y1="38" x2="28" y2="36" stroke="#263238" stroke-width="1.5" stroke-linecap="round"/>
  <!-- Right page lines -->
  <line x1="36" y1="20" x2="50" y2="22" stroke="#263238" stroke-width="1.5" stroke-linecap="round"/>
  <line x1="36" y1="28" x2="50" y2="30" stroke="#263238" stroke-width="1.5" stroke-linecap="round"/>
  <line x1="36" y1="36" x2="50" y2="38" stroke="#263238" stroke-width="1.5" stroke-linecap="round"/>
</svg>
